<svg width="130" height="141" viewBox="0 0 130 141" fill="none" xmlns="http://www.w3.org/2000/svg">
<rect y="5" width="130" height="130" fill="#D9D9D9"/>
<path d="M86 59.6875C84.0833 62.1875 81.6458 63.875 78.6875 64.75C83.5208 65.4583 87.4375 67.4167 90.4375 70.625C93.4792 73.8333 95 78.375 95 84.25C95 91.625 92.1042 97.1042 86.3125 100.688C80.5625 104.229 73 106 63.625 106H41.25C40.25 106 39.4583 105.75 38.875 105.25C38.3333 104.708 38.0625 104.062 38.0625 103.312C38.0625 102.604 38.3333 101.979 38.875 101.438C39.4583 100.896 40.2292 100.625 41.1875 100.625H51.1875V38.1875H40.8125C39.8542 38.1875 39.1042 37.9167 38.5625 37.375C38.0208 36.8333 37.75 36.1875 37.75 35.4375C37.75 34.7292 38 34.125 38.5 33.625C39.0417 33.0833 39.7917 32.8125 40.75 32.8125H63C70.8333 32.8125 77.1042 34.1667 81.8125 36.875C86.5625 39.5833 88.9375 44.1042 88.9375 50.4375C88.9375 54.1042 87.9583 57.1875 86 59.6875ZM57.1875 63.9375H65.3125C68.5625 63.9375 71.5625 63.4792 74.3125 62.5625C77.0625 61.6458 79.2917 60.1875 81 58.1875C82.7083 56.1875 83.5625 53.6875 83.5625 50.6875C83.5625 46.1875 81.8333 42.9792 78.375 41.0625C74.9583 39.1458 70.1042 38.1875 63.8125 38.1875H57.1875V63.9375ZM57.1875 100.625H63.8125C71.7708 100.625 77.9583 99.2917 82.375 96.625C86.7917 93.9583 89 89.5208 89 83.3125C89 79.1458 87.9375 76 85.8125 73.875C83.7292 71.75 81 70.3542 77.625 69.6875C74.2917 69.0208 70.1875 68.6875 65.3125 68.6875H57.1875V100.625Z" fill="black"/>
</svg>
